<?xml version="1.0" encoding="utf-8"?>
<!-- Generator: Adobe Illustrator 16.0.3, SVG Export Plug-In . SVG Version: 6.00 Build 0)  -->
<!DOCTYPE svg PUBLIC "-//W3C//DTD SVG 1.1//EN" "http://www.w3.org/Graphics/SVG/1.1/DTD/svg11.dtd">
<svg version="1.1" id="Southwest_Logo_1_" xmlns="http://www.w3.org/2000/svg" xmlns:xlink="http://www.w3.org/1999/xlink" x="0px"
	 y="0px" width="223px" height="34px" viewBox="0 0 223 34" enable-background="new 0 0 223 34" xml:space="preserve">
<g id="Type">
	<g>
		<path fill="#FFFFFF" d="M59,27.005c-0.91,0.17-1.972,0.319-3.114,0.319c-3.192-0.004-3.895-1.102-3.894-3.168V11.995h-6.006
			l-0.012,12.762c-0.005,5.66,3.167,8.254,9.623,8.261c3.132,0.002,6.045-0.576,9.464-1.449V11.995H59V27.005z M78.497,27.563
			c-2.184-0.002-2.485-1.03-2.484-2.678l0.007-7.845l4.982,0.005v-5.05H76.02V5.986h-6.016v6.008l-3.035,0.001v5.037l3.035,0.003
			l-0.007,8.238c-0.003,3.627,0.734,7.761,6.708,7.766c1.827,0.002,3.32-0.438,4.952-0.9l-0.598-5.002
			C80.175,27.393,79.401,27.563,78.497,27.563z M15.444,16.317c-1.113-0.426-2.355-0.826-3.687-1.194
			c-3.506-0.99-4.585-1.543-4.584-3.082c0.001-1.818,1.35-2.653,4.494-2.65c2.583,0.002,4.878,0.67,7.212,1.547l1.262-5.891
			c-2.69-1.002-5.245-1.895-8.344-1.897C4.561,3.144,0.57,7.255,0.565,12.188c-0.003,3.654,1.648,6.136,5.21,7.576
			c1.046,0.422,2.252,0.84,3.588,1.233c3.928,1.206,5.072,1.771,5.071,3.282c-0.001,1.832-1.498,2.808-4.576,2.805
			c-2.829-0.003-5.43-0.781-8.15-2.032l-1.259,5.943c2.969,1.172,5.926,2.041,9.483,2.044c7.362,0.007,11.181-4.115,11.185-9.063
			C21.121,19.93,18.839,17.616,15.444,16.317z M94.227,10.954c-1.972-0.002-3.856,0.456-5.193,0.92V1.975h-6.007v31.013h5.988
			l0.013-15.546c1.083-0.415,2.333-0.825,3.811-0.824c2.339,0.002,3.185,0.899,3.183,3.084l-0.011,13.286H102l0.011-13.939
			C102.016,13.57,99.542,10.958,94.227,10.954z M33.419,10.855c-6.074-0.005-10.977,4.26-10.983,11
			c-0.006,6.742,4.873,11.179,10.963,11.184c6.086,0.006,10.973-4.407,10.979-11.163S39.488,10.861,33.419,10.855z M33.404,27.139
			c-2.611-0.002-4.702-1.878-4.699-5.275s2.029-5.188,4.708-5.186c2.675,0.002,4.658,1.771,4.655,5.192
			C38.066,25.296,36.013,27.143,33.404,27.139z M168.117,20.206c-0.855-0.297-1.816-0.604-2.863-0.906
			c-2.104-0.554-2.92-0.907-2.919-1.774c0.001-0.915,0.815-1.524,2.665-1.523c1.986,0.002,3.816,0.411,5.777,0.979l0.955-5.188
			c-2.162-0.473-4.303-0.889-6.729-0.892c-5.688-0.005-8.75,2.906-8.754,6.876c-0.002,2.82,1.367,4.602,4.203,5.801
			c0.801,0.341,1.743,0.686,2.812,1.021c2.217,0.64,3.297,0.9,3.297,1.901c-0.002,0.953-1.314,1.386-3.074,1.384
			c-2.166-0.002-4.188-0.355-6.275-1.178l-0.934,5.154c2.584,0.736,5.008,1.22,7.697,1.222c5.981,0.006,8.664-3.128,8.668-6.995
			C172.646,23.441,171.505,21.396,168.117,20.206z M145.557,10.879c-6.348-0.006-10.752,4.418-10.758,11.387
			c-0.005,6.502,3.922,10.791,10.863,10.797c3.102,0.002,5.631-0.867,8.232-1.974l-0.902-4.967c-1.96,0.882-3.987,1.569-6.354,1.567
			c-3.578-0.004-5.052-1.541-5.283-3.713l13.483,0.012c0,0,0.195-2.446,0.195-2.922C155.041,15.407,151.904,10.884,145.557,10.879z
			 M141.441,19.967c0.383-1.842,1.342-4.124,3.865-4.122c2.6,0.003,3.383,2.64,3.45,4.128L141.441,19.967z M184.49,27.563
			c-2.184-0.002-2.473-1.03-2.471-2.678l0.008-7.797l5.039,0.005v-5.098h-5.041V5.986h-6.027v6.008l-3.063,0.001v5.085l3.063,0.003
			l-0.008,8.19c-0.004,3.627,0.877,7.761,6.851,7.766c1.827,0.002,3.333-0.438,4.966-0.9l-0.742-5.002
			C186.182,27.393,185.395,27.563,184.49,27.563z M188.49,3.219c-1.461-0.001-2.65,1.188-2.652,2.655s1.188,2.657,2.646,2.659
			c1.469,0.001,2.658-1.188,2.66-2.655S189.957,3.221,188.49,3.219z M188.484,8.063c-1.23-0.001-2.148-0.892-2.148-2.188
			c0.002-1.289,0.922-2.187,2.152-2.185c1.24,0.001,2.152,0.899,2.15,2.188C190.639,7.174,189.725,8.063,188.484,8.063z
			 M188.814,5.997c0.457-0.07,0.764-0.341,0.764-0.804c0-0.506-0.355-0.891-1.032-0.892L187.498,4.3l-0.002,3.084l0.57,0.001V6.067
			c0.207,0.001,0.285,0.064,0.428,0.293l0.662,1.026h0.654l-0.633-0.955C189.035,6.218,188.93,6.083,188.814,5.997z M188.367,5.655
			l-0.301-0.001l0.002-0.897l0.392,0.001c0.386,0,0.521,0.179,0.521,0.449C188.979,5.584,188.688,5.655,188.367,5.655z
			 M129.229,11.995l-3.754,11.548l-3.887-11.548h-5.238l-3.886,11.548l-3.755-11.548h-6.527l7.453,20.991h5.539L119,21.625
			l3.766,11.361h5.539l7.452-20.991H129.229z"/>
	</g>
</g>
<g>
	<g>
		<path fill="#CCCCCC" d="M206.955,10.784c-2.029,0-3.663,0.707-4.969,1.45c-1.307-0.743-2.938-1.45-4.968-1.45
			c-4.057,0-6.736,2.65-6.736,7.178c0,5.524,5.275,10.921,11.704,15.254c6.43-4.334,11.704-9.729,11.704-15.254
			C213.69,13.435,211.013,10.784,206.955,10.784z"/>
		
			<linearGradient id="SVGID_1_" gradientUnits="userSpaceOnUse" x1="190.9443" y1="10.52" x2="206.4014" y2="10.52" gradientTransform="matrix(1 0 0 -1 0 35)">
			<stop  offset="0" style="stop-color:#3656CC"/>
			<stop  offset="0.35" style="stop-color:#304CB2"/>
			<stop  offset="0.72" style="stop-color:#283B80"/>
		</linearGradient>
		<path fill="url(#SVGID_1_)" d="M190.944,18.059c0,5.648,5.956,10.902,11.042,14.38c1.464-1.002,2.976-2.152,4.415-3.416
			c-6.738-5.644-13.062-10.693-15.331-12.501C190.989,17.005,190.944,17.52,190.944,18.059z"/>
		
			<linearGradient id="SVGID_2_" gradientUnits="userSpaceOnUse" x1="193.1406" y1="22.7305" x2="210.602" y2="10.5039" gradientTransform="matrix(1 0 0 -1 0 35)">
			<stop  offset="0.3" style="stop-color:#E61C23"/>
			<stop  offset="0.8" style="stop-color:#C3161C"/>
		</linearGradient>
		<path fill="url(#SVGID_2_)" d="M212.577,20.679c-4.883-4.027-7.84-6.077-11.011-7.98c-0.854-0.516-2.569-1.27-4.492-1.27
			c-1.842,0-3.389,0.573-4.455,1.69c-0.694,0.725-1.165,1.636-1.434,2.741c2.529,1.766,9.396,6.676,16.313,12.154
			C209.808,25.815,211.743,23.314,212.577,20.679z"/>
		
			<linearGradient id="SVGID_3_" gradientUnits="userSpaceOnUse" x1="203.9639" y1="24.3096" x2="213.9473" y2="17.3191" gradientTransform="matrix(1 0 0 -1 0 35)">
			<stop  offset="0" style="stop-color:#FDBC11"/>
			<stop  offset="0.25" style="stop-color:#FCB415"/>
			<stop  offset="0.8" style="stop-color:#F89E1C"/>
		</linearGradient>
		<path fill="url(#SVGID_3_)" d="M211.343,13.122c-1.05-1.094-2.589-1.683-4.36-1.683c-1.9,0-3.348,0.614-4.357,1.162
			c1.894,1.054,6.009,3.439,10.272,6.579c0.066-0.424,0.103-0.85,0.103-1.278C213,15.913,212.419,14.247,211.343,13.122z"/>
	</g>
</g>
</svg>
